PathFileType	4	(X/Y/Z)	/Users/itak/Documents/Research/Walk-IL/dataset/trc/00366_00011.trc
DataRate	CameraRate	NumFrames	NumMarkers	Units	OrigDataRate	OrigDataStartFrame	OrigNumFrames
100.000000	100.000000	4	56	mm	100.000000	343	392
Frame#	Time	RPSI			LPSI			L3			STRN			T10			C7			CLAV			RBAK			LBAK			LSHO			LUPA			LAEL			LAOL			LWPS			LFRA			LIFD			LHPS			LHTS			RSHO			RUPA			RAEL			RAOL			RWTS			RWPS			RFRA			RIFD			RHTS			RHPS			RBHD			LFHD			RFHD			LBHD			LHIP			RHIP			RASI			LASI			LKNE			LTHI			LANK			LTIP			LTOE			LMT1			LMT5			LHEE			RKNE			RTHI			RANK			RTIP			RTOE			RMT1			RMT5			RHEE			LWTS			*53			*54			*55			
		X1	Y1	Z1	X2	Y2	Z2	X3	Y3	Z3	X4	Y4	Z4	X5	Y5	Z5	X6	Y6	Z6	X7	Y7	Z7	X8	Y8	Z8	X9	Y9	Z9	X10	Y10	Z10	X11	Y11	Z11	X12	Y12	Z12	X13	Y13	Z13	X14	Y14	Z14	X15	Y15	Z15	X16	Y16	Z16	X17	Y17	Z17	X18	Y18	Z18	X19	Y19	Z19	X20	Y20	Z20	X21	Y21	Z21	X22	Y22	Z22	X23	Y23	Z23	X24	Y24	Z24	X25	Y25	Z25	X26	Y26	Z26	X27	Y27	Z27	X28	Y28	Z28	X29	Y29	Z29	X30	Y30	Z30	X31	Y31	Z31	X32	Y32	Z32	X33	Y33	Z33	X34	Y34	Z34	X35	Y35	Z35	X36	Y36	Z36	X37	Y37	Z37	X38	Y38	Z38	X39	Y39	Z39	X40	Y40	Z40	X41	Y41	Z41	X42	Y42	Z42	X43	Y43	Z43	X44	Y44	Z44	X45	Y45	Z45	X46	Y46	Z46	X47	Y47	Z47	X48	Y48	Z48	X49	Y49	Z49	X50	Y50	Z50	X51	Y51	Z51	X52	Y52	Z52	X53	Y53	Z53	X54	Y54	Z54	X55	Y55	Z55	X56	Y56	Z56	

344	3.43	51.18402862548828	977.6023559570312	971.13720703125	179.7891998291016	976.827880859375	984.858154296875	115.1194152832031	1031.73876953125	977.7427368164062	105.7877807617188	1231.723876953125	1195.4462890625	135.7630615234375	1149.0791015625	964.12548828125	158.0168151855469	1400.755737304688	990.1852416992188	121.5364608764648	1354.5107421875	1146.611572265625	95.37490081787109	1260.056030273438	942.8681640625	258.4158630371094	1358.648803710938	997.9851684570312	298.224609375	1379.669677734375	1091.1806640625	364.5366516113281	1257.427124023438	1095.25048828125	373.7012939453125	1058.883056640625	1145.86474609375	334.0144958496094	1033.014526367188	1074.01171875	333.7506408691406	853.83984375	1291.090576171875	366.6268005371094	966.747802734375	1193.818725585938	236.6689605712891	747.88671875	1383.008911132812	314.3473510742188	791.6951904296875	1318.997802734375	272.0789184570312	823.17529296875	1355.636352539062	-13.66200733184814	1397.403442382812	1017.449829101562	-74.033447265625	1336.187622070312	991.6459350585938	-100.8788070678711	1072.91064453125	955.262939453125	-6.671379566192627	1066.017333984375	960.8258666992188	-117.5797424316406	830.8214721679688	1039.755249023438	-158.7117462158203	827.4127807617188	974.390869140625	-122.421516418457	1005.400268554688	963.4564208984375	-136.9041595458984	658.2759399414062	1009.708129882812	-140.3726196289062	724.1775512695312	1033.859619140625	-163.4903564453125	742.6813354492188	971.27197265625	67.46939086914062	1612.466796875	1024.575073242188	169.6170196533203	1624.3701171875	1205.953369140625	70.29974365234375	1626.980590820312	1186.569946289062	211.9260711669922	1604.093505859375	1025.144653320312	277.0225830078125	922.3713989257812	1080.453979492188	-64.38578033447266	927.9619750976562	1045.41748046875	-29.79153251647949	961.1065063476562	1151.832885742188	205.7909240722656	951.3118286132812	1195.793823242188	246.8823699951172	463.774658203125	1134.120361328125	259.8599243164062	602.67578125	1135.976318359375	220.4336090087891	45.0632438659668	1078.674560546875	247.0964202880859	244.9687805175781	1108.56201171875	155.2074279785156	44.62001419067383	1285.071899414062	114.6312561035156	33.58218765258789	1213.933227539062	228.4903564453125	41.71626663208008	1204.172241210938	152.3959045410156	40.78560256958008	1045.443969726562	-85.33684539794922	465.3406982421875	1139.9287109375	-87.24430084228516	732.4063720703125	1141.664916992188	-103.1856307983398	54.23447418212891	1085.72216796875	-83.80781555175781	351.765869140625	1148.440307617188	-43.63367462158203	51.8855094909668	1275.325317382812	-5.458242416381836	43.43910980224609	1217.55126953125	-119.0671768188477	40.76606369018555	1187.209838867188	-57.51847076416016	54.95901489257812	1033.06640625	273.9344482421875	887.3645629882812	1305.961791992188	nan	nan	nan	nan	nan	nan	nan	nan	nan	
345	3.44	48.98581695556641	977.0555419921875	973.97705078125	177.6875610351562	976.5675048828125	987.2359008789062	112.7918090820312	1031.220703125	980.2996826171875	104.7889862060547	1231.77734375	1197.570678710938	133.0718536376953	1148.6357421875	966.3385009765625	155.9736328125	1400.42041015625	991.8096313476562	120.3981170654297	1354.4560546875	1148.405517578125	92.62971496582031	1259.713256835938	945.0823364257812	256.3211975097656	1358.049072265625	999.0189208984375	296.8924560546875	1379.050048828125	1091.895385742188	362.7572021484375	1256.482543945312	1095.259765625	371.5661315917969	1057.7021484375	1145.121337890625	331.2162475585938	1032.231079101562	1073.544311523438	332.0119018554688	851.7550048828125	1289.44140625	364.5840759277344	965.2527465820312	1192.657958984375	235.0183563232422	744.8359375	1380.390991210938	312.5780334472656	789.2515869140625	1316.702514648438	270.5138549804688	820.3663330078125	1353.77880859375	-15.70329666137695	1397.273193359375	1020.0224609375	-76.19805145263672	1335.872192382812	994.835205078125	-103.1285934448242	1072.179931640625	960.0606689453125	-8.861191749572754	1065.65771484375	964.6307983398438	-117.9127883911133	830.71337890625	1046.485595703125	-159.7810821533203	826.6386108398438	981.6424560546875	-124.2704620361328	1004.657897949219	968.9472045898438	-136.6559295654297	657.840087890625	1017.998779296875	-137.4200439453125	721.970947265625	1039.724609375	-164.1516571044922	741.779296875	979.2582397460938	66.15557098388672	1612.571899414062	1026.410034179688	168.9775390625	1624.130859375	1207.402465820312	69.57447814941406	1626.960693359375	1188.352294921875	210.6098937988281	1603.941284179688	1026.434692382812	275.3333435058594	922.6368408203125	1082.69140625	-66.19966125488281	927.2178344726562	1048.553955078125	-31.62094688415527	960.6720581054688	1154.915649414062	204.1117095947266	951.4856567382812	1198.158325195312	245.9462432861328	463.9010925292969	1135.366333007812	258.7033081054688	602.8771362304688	1137.453369140625	220.3667449951172	45.11727905273438	1078.678833007812	246.4493103027344	245.3297882080078	1108.981079101562	155.2418060302734	44.66009521484375	1285.0654296875	114.6597290039062	33.59414672851562	1213.91748046875	228.5106353759766	41.75741195678711	1204.187377929688	152.3467559814453	40.83211898803711	1045.454956054688	-86.04088592529297	464.5154418945312	1140.271728515625	-88.83130645751953	731.62744140625	1144.057983398438	-102.7072143554688	54.23273849487305	1086.476440429688	-83.9945068359375	351.3007507324219	1148.6337890625	-43.33530426025391	49.46603012084961	1276.197631835938	-5.011754035949707	42.27787399291992	1218.172973632812	-118.8229751586914	39.99098205566406	1187.930541992188	-57.13672256469727	54.94989776611328	1033.798217773438	272.5003356933594	885.255126953125	1304.983642578125	nan	nan	nan	nan	nan	nan	nan	nan	nan	
346	3.45	46.90198516845703	976.61376953125	976.7076416015625	175.6835174560547	976.3434448242188	989.5391235351562	110.6010513305664	1030.813598632812	982.7301635742188	103.781364440918	1231.9169921875	1199.624877929688	130.4661407470703	1148.3212890625	968.44384765625	153.9376525878906	1400.176025390625	993.413818359375	119.2248077392578	1354.477661132812	1150.148559570312	89.88978576660156	1259.474487304688	947.2755737304688	254.2289428710938	1357.580688476562	1000.047424316406	295.5188903808594	1378.536987304688	1092.618286132812	360.9503479003906	1255.6474609375	1095.270629882812	369.4125061035156	1056.597778320312	1144.240356445312	328.3778076171875	1031.60009765625	1072.966918945312	330.4074096679688	849.5738525390625	1287.388916015625	362.5564270019531	963.740966796875	1191.2724609375	233.6654357910156	741.521484375	1377.375	310.9952697753906	786.654052734375	1313.931640625	269.192626953125	817.3009033203125	1351.56591796875	-17.73430824279785	1397.240844726562	1022.511596679688	-78.35388946533203	1335.659912109375	997.9419555664062	-105.5721664428711	1071.552978515625	964.8583984375	-11.28069114685059	1065.3740234375	968.2614135742188	-118.2620697021484	830.8292236328125	1053.445434570312	-160.971923828125	826.001708984375	989.2144165039062	-126.2754745483398	1004.030090332031	974.5247802734375	-136.4795532226562	657.614501953125	1026.835693359375	-133.9764251708984	719.6157836914062	1045.6455078125	-164.9431304931641	741.028564453125	987.6757202148438	64.80249786376953	1612.751831054688	1028.182739257812	168.2784271240234	1623.988525390625	1208.788818359375	68.79062652587891	1627.025756835938	1190.053955078125	209.2456512451172	1603.865600585938	1027.67236328125	273.6534729003906	922.909912109375	1084.827392578125	-67.94628143310547	926.7119140625	1051.49169921875	-33.47726058959961	960.460205078125	1157.825927734375	202.3968658447266	951.6817626953125	1200.405151367188	244.8519897460938	464.0560607910156	1136.625	257.4205017089844	603.093505859375	1138.933349609375	220.2691650390625	45.19587707519531	1078.696411132812	245.7225189208984	245.6778564453125	1109.435546875	155.2694702148438	44.68813323974609	1285.06689453125	114.6692962646484	33.59533309936523	1213.914306640625	228.5027923583984	41.82357406616211	1204.206420898438	152.2820281982422	40.88119125366211	1045.46875	-86.61737823486328	464.0752563476562	1140.364135742188	-90.50901794433594	731.0776977539062	1146.386962890625	-102.2074813842773	54.36904525756836	1086.617553710938	-84.40180206298828	351.0481567382812	1148.312377929688	-43.20905303955078	47.78842163085938	1276.467651367188	-4.713717937469482	41.51760864257812	1218.301025390625	-118.650505065918	39.59311294555664	1188.040161132812	-56.70598220825195	55.04971694946289	1033.96044921875	271.278564453125	882.9780883789062	1303.783935546875	nan	nan	nan	nan	nan	nan	nan	nan	nan	
347	3.46	44.95542144775391	976.3338012695312	979.3526000976562	173.7875213623047	976.1773071289062	991.7831420898438	108.5634307861328	1030.52685546875	985.0582275390625	102.752326965332	1232.160034179688	1201.616455078125	127.9840393066406	1148.13623046875	970.4360961914062	151.9252166748047	1400.019653320312	994.9912719726562	118.0182342529297	1354.582153320312	1151.843017578125	87.23084259033203	1259.341064453125	949.4117431640625	252.1591796875	1357.261474609375	1001.0771484375	294.1091918945312	1378.157592773438	1093.363037109375	359.1349487304688	1254.960205078125	1095.31005859375	367.2374877929688	1055.60595703125	1143.251953125	325.5028381347656	1031.166870117188	1072.297729492188	328.9284973144531	847.3198852539062	1284.948364257812	360.5330505371094	962.2601318359375	1189.670654296875	232.5959625244141	738.0066528320312	1373.981811523438	309.5801696777344	783.946533203125	1310.696044921875	268.1119995117188	814.0203857421875	1348.997314453125	-19.71907806396484	1397.317016601562	1024.905517578125	-80.47821807861328	1335.574829101562	1000.941955566406	-108.1872863769531	1071.065307617188	969.6427612304688	-13.90160655975342	1065.197998046875	971.6907958984375	-118.5956573486328	831.1968994140625	1060.603271484375	-162.2730712890625	825.5451049804688	997.0960693359375	-128.4159088134766	1003.548583984375	980.1768188476562	-136.3878631591797	657.6436157226562	1036.184936523438	-130.3958587646484	717.3904418945312	1051.85107421875	-165.8525238037109	740.4823608398438	996.5149536132812	63.42093276977539	1612.992553710938	1029.886108398438	167.5176391601562	1623.940673828125	1210.117065429688	67.94844818115234	1627.16552734375	1191.679443359375	207.8404083251953	1603.858764648438	1028.86572265625	271.9611511230469	923.126708984375	1086.91357421875	-69.59819030761719	926.4977416992188	1054.25634765625	-35.30927658081055	960.4979858398438	1160.589111328125	200.7041778564453	951.9049072265625	1202.54150390625	243.5973663330078	464.2591857910156	1137.890991210938	256.0182189941406	603.3152465820312	1140.43017578125	220.1396331787109	45.30109405517578	1078.729370117188	244.9342193603516	246.0158233642578	1109.92578125	155.2887878417969	44.70070648193359	1285.077758789062	114.658447265625	33.58469009399414	1213.926879882812	228.4612884521484	41.91530227661133	1204.229125976562	152.1996307373047	40.93387603759766	1045.485107421875	-87.12948608398438	464.050048828125	1140.065185546875	-92.21215057373047	730.7760009765625	1148.657348632812	-101.7910461425781	54.55175399780273	1086.441650390625	-85.07944488525391	351.0036315917969	1147.5576171875	-43.21010971069336	46.7083740234375	1276.406616210938	-4.558449745178223	41.0817985534668	1218.17919921875	-118.5517959594727	39.43963241577148	1187.822387695312	-56.33390808105469	55.213134765625	1033.822875976562	270.248291015625	880.5664672851562	1302.3515625	nan	nan	nan	nan	nan	nan	nan	nan	nan	
